<?xml version="1.0" encoding="UTF-8"?>
<!DOCTYPE svg PUBLIC "-//W3C//DTD SVG 1.1//EN" "http://www.w3.org/Graphics/SVG/1.1/DTD/svg11.dtd">
<svg xmlns="http://www.w3.org/2000/svg" version="1.1" width="315px" height="103px" style="shape-rendering:geometricPrecision; text-rendering:geometricPrecision; image-rendering:optimizeQuality; fill-rule:evenodd; clip-rule:evenodd" xmlns:xlink="http://www.w3.org/1999/xlink">
<g><path style="opacity:1" fill="#f3f3f3" d="M 75.5,21.5 C 74.962,19.8828 74.6287,18.2161 74.5,16.5C 80.3817,13.1136 86.7151,11.7803 93.5,12.5C 100.065,33.5923 106.398,54.7589 112.5,76C 112.241,77.2613 111.574,78.2613 110.5,79C 105.282,80.4283 100.116,81.9283 95,83.5C 94.586,83.0426 94.086,82.7093 93.5,82.5C 87.0357,62.3107 81.0357,41.9774 75.5,21.5 Z"/></g>
<g><path style="opacity:0.999" fill="#75c1c3" d="M 26.5,12.5 C 32.7576,12.1903 38.9242,12.5236 45,13.5C 45.1667,25 45.3333,36.5 45.5,48C 45.4891,59.8917 44.8224,71.5584 43.5,83C 37.5837,83.8072 31.7504,83.6406 26,82.5C 25.3994,60.4459 24.8994,38.4459 24.5,16.5C 25.1799,15.1401 25.8466,13.8068 26.5,12.5 Z"/></g>
<g><path style="opacity:0.999" fill="#f7f7f7" d="M 51.5,12.5 C 57.7576,12.1903 63.9242,12.5236 70,13.5C 70.6667,36.1667 70.6667,58.8333 70,81.5C 69.5,82 69,82.5 68.5,83C 62.7805,83.7876 57.1138,83.6209 51.5,82.5C 50.1782,59.1012 50.1782,35.7679 51.5,12.5 Z"/></g>
<g><path style="opacity:0.039" fill="#343434" d="M 74.5,16.5 C 74.6287,18.2161 74.962,19.8828 75.5,21.5C 73.4031,20.1214 73.0698,18.4547 74.5,16.5 Z"/></g>
<g><path style="opacity:0.999" fill="#dadada" d="M 182.5,21.5 C 183.5,21.5 184.5,21.5 185.5,21.5C 187.691,29.5729 190.191,37.5729 193,45.5C 193.791,47.6036 195.291,48.937 197.5,49.5C 192.5,50.8333 187.5,50.8333 182.5,49.5C 183.833,48.8333 185.167,48.1667 186.5,47.5C 185.754,46.2638 185.421,44.9305 185.5,43.5C 182.833,43.5 180.167,43.5 177.5,43.5C 177.579,44.9305 177.246,46.2638 176.5,47.5C 177.833,48.1667 179.167,48.8333 180.5,49.5C 176.833,50.8333 173.167,50.8333 169.5,49.5C 171.193,48.7717 172.693,47.7717 174,46.5C 177.137,38.2549 179.971,29.9215 182.5,21.5 Z M 180.5,33.5 C 182.269,35.3875 183.602,37.7208 184.5,40.5C 182.5,41.8333 180.5,41.8333 178.5,40.5C 179.577,38.2706 180.244,35.9372 180.5,33.5 Z"/></g>
<g><path style="opacity:0.999" fill="#e0e0e0" d="M 244.5,50.5 C 245.5,49.8333 246.5,49.1667 247.5,48.5C 247.371,46.7839 247.038,45.1172 246.5,43.5C 245.5,42.8333 244.5,42.1667 243.5,41.5C 244.376,41.6309 245.043,41.2975 245.5,40.5C 244.67,37.9836 243.67,35.6502 242.5,33.5C 241.732,34.2625 241.232,35.2625 241,36.5C 240.617,35.944 240.117,35.6107 239.5,35.5C 240.424,31.0587 241.758,26.7254 243.5,22.5C 244.5,21.1667 245.5,21.1667 246.5,22.5C 249.432,30.7961 252.265,39.1295 255,47.5C 256.205,48.0712 257.372,48.7379 258.5,49.5C 253.88,50.4933 249.214,50.8266 244.5,50.5 Z"/></g>
<g><path style="opacity:0.999" fill="#d8d8d8" d="M 162.5,38.5 C 161.676,42.3123 161.176,46.3123 161,50.5C 160.617,49.944 160.117,49.6107 159.5,49.5C 159.631,48.6236 159.298,47.9569 158.5,47.5C 150.977,53.7173 145.144,52.3839 141,43.5C 138.646,36.6429 139.646,30.3095 144,24.5C 148.438,20.9826 153.105,20.6492 158,23.5C 159.261,23.2409 160.261,22.5742 161,21.5C 161.333,21.8333 161.667,22.1667 162,22.5C 162.922,26.6908 162.588,30.6908 161,34.5C 159.559,31.1202 157.726,27.9535 155.5,25C 152.447,22.7966 149.947,23.2966 148,26.5C 147.072,33.9402 147.406,41.2735 149,48.5C 151.54,49.8765 153.54,49.2098 155,46.5C 155.497,43.854 155.664,41.1873 155.5,38.5C 153.712,38.7852 152.045,38.4519 150.5,37.5C 155.167,36.1667 159.833,36.1667 164.5,37.5C 164.043,38.2975 163.376,38.6309 162.5,38.5 Z"/></g>
<g><path style="opacity:0.999" fill="#e0e0e0" d="M 215.5,38.5 C 214.5,37.1667 213.5,37.1667 212.5,38.5C 212.5,41.5 212.5,44.5 212.5,47.5C 214.042,48.1635 215.709,48.8302 217.5,49.5C 212.5,50.8333 207.5,50.8333 202.5,49.5C 203.689,48.5713 205.022,48.238 206.5,48.5C 206.5,40.5 206.5,32.5 206.5,24.5C 205.022,24.762 203.689,24.4287 202.5,23.5C 210.138,22.5025 217.804,22.1692 225.5,22.5C 225.823,26.226 225.489,29.8927 224.5,33.5C 223.113,30.5081 221.446,27.6748 219.5,25C 217.19,24.5034 214.857,24.3367 212.5,24.5C 212.468,28.501 212.801,32.1677 213.5,35.5C 216.101,34.3092 217.768,32.3092 218.5,29.5C 219.086,29.7093 219.586,30.0426 220,30.5C 220.667,34.1667 220.667,37.8333 220,41.5C 219.586,41.9574 219.086,42.2907 218.5,42.5C 217.85,40.8164 216.85,39.4831 215.5,38.5 Z"/></g>
<g><path style="opacity:0.012" fill="#434343" d="M 212.5,38.5 C 213.5,38.5 214.5,38.5 215.5,38.5C 214.224,41.4772 213.224,44.4772 212.5,47.5C 212.5,44.5 212.5,41.5 212.5,38.5 Z"/></g>
<g><path style="opacity:0.654" fill="#b0b0b0" d="M 242.5,33.5 C 242.613,36.0488 241.946,38.3821 240.5,40.5C 241.636,40.9643 242.636,41.2976 243.5,41.5C 244.5,42.1667 245.5,42.8333 246.5,43.5C 243.833,43.5 241.167,43.5 238.5,43.5C 238.5,45.1667 238.5,46.8333 238.5,48.5C 237.036,47.5946 235.702,47.5946 234.5,48.5C 235.992,44.0129 237.658,39.6795 239.5,35.5C 240.117,35.6107 240.617,35.944 241,36.5C 241.232,35.2625 241.732,34.2625 242.5,33.5 Z"/></g>
<g><path style="opacity:0.084" fill="#4b4b4b" d="M 162.5,38.5 C 162.5,42.8333 162.5,47.1667 162.5,51.5C 160.821,51.7148 159.821,51.0481 159.5,49.5C 160.117,49.6107 160.617,49.944 161,50.5C 161.176,46.3123 161.676,42.3123 162.5,38.5 Z"/></g>
<g><path style="opacity:0.993" fill="#f5f5f5" d="M 238.5,48.5 C 239.5,49.1667 240.5,49.8333 241.5,50.5C 238.167,50.5 234.833,50.5 231.5,50.5C 232.167,49.8333 232.833,49.1667 233.5,48.5C 233.833,48.5 234.167,48.5 234.5,48.5C 235.702,47.5946 237.036,47.5946 238.5,48.5 Z"/></g>
<g><path style="opacity:0.294" fill="#6f6f6f" d="M 233.5,48.5 C 232.833,49.1667 232.167,49.8333 231.5,50.5C 230.957,50.44 230.624,50.1067 230.5,49.5C 231.325,48.6143 232.325,48.281 233.5,48.5 Z"/></g>
<g><path style="opacity:0.02" fill="#3f3f3f" d="M 238.5,48.5 C 239.978,48.238 241.311,48.5713 242.5,49.5C 242.376,50.1067 242.043,50.44 241.5,50.5C 240.5,49.8333 239.5,49.1667 238.5,48.5 Z"/></g>
<g><path style="opacity:0.118" fill="#5d5d5d" d="M 247.5,48.5 C 246.5,49.1667 245.5,49.8333 244.5,50.5C 243.957,50.44 243.624,50.1067 243.5,49.5C 244.689,48.5713 246.022,48.238 247.5,48.5 Z"/></g>
<g><path style="opacity:0.631" fill="#9b9b9b" d="M 146.5,67.5 C 147.88,71.8603 149.213,76.3603 150.5,81C 150,81.5 149.5,82 149,82.5C 145.125,81.5101 141.458,81.5101 138,82.5C 137.5,82 137,81.5 136.5,81C 140.937,77.2804 144.271,72.7804 146.5,67.5 Z M 142.5,77.5 C 143.5,77.5 144.5,77.5 145.5,77.5C 145.5,78.5 145.5,79.5 145.5,80.5C 142.506,80.8543 141.506,79.8543 142.5,77.5 Z"/></g>
<g><path style="opacity:0.255" fill="#7d7d7d" d="M 156.5,73.5 C 155.833,74.5 155.167,75.5 154.5,76.5C 151.717,75.7725 152.05,74.4391 155.5,72.5C 156.107,72.6236 156.44,72.9569 156.5,73.5 Z"/></g>
<g><path style="opacity:0.304" fill="#7b7b7b" d="M 167.5,73.5 C 166.833,74.5 166.167,75.5 165.5,76.5C 164.867,76.1205 164.2,75.7871 163.5,75.5C 164.257,72.962 165.59,72.2953 167.5,73.5 Z"/></g>
<g><path style="opacity:0.69" fill="#9f9f9f" d="M 165.5,76.5 C 166.167,75.5 166.833,74.5 167.5,73.5C 169.01,72.2721 170.51,72.2721 172,73.5C 173.337,77.5263 172.17,80.5263 168.5,82.5C 167.914,82.2907 167.414,81.9574 167,81.5C 166.405,82.8989 166.572,84.2322 167.5,85.5C 165.5,86.8333 163.5,86.8333 161.5,85.5C 163.584,82.8275 164.917,79.8275 165.5,76.5 Z M 168.5,74.5 C 170.81,76.2781 170.644,78.2781 168,80.5C 167.51,78.4546 167.677,76.4546 168.5,74.5 Z"/></g>
<g><path style="opacity:0.616" fill="#959595" d="M 154.5,76.5 C 155.167,75.5 155.833,74.5 156.5,73.5C 162.826,72.2473 164.159,74.5806 160.5,80.5C 159.18,82.2701 157.68,82.6034 156,81.5C 155.626,82.4162 155.126,83.2496 154.5,84C 155.308,84.3076 155.975,84.8076 156.5,85.5C 154.579,86.641 152.579,86.8077 150.5,86C 152.207,83.0208 153.541,79.8541 154.5,76.5 Z M 157.5,74.5 C 159.806,76.3842 159.639,78.3842 157,80.5C 156.51,78.4546 156.677,76.4546 157.5,74.5 Z"/></g>
<g><path style="opacity:1" fill="#e1e1e1" d="M 25.5,85.5 C 54.1686,85.3334 82.8353,85.5 111.5,86C 112.833,88.3333 112.833,90.6667 111.5,93C 82.8353,93.5 54.1686,93.6666 25.5,93.5C 25.5,90.8333 25.5,88.1667 25.5,85.5 Z"/></g>
</svg>
